testOutput_kerning.ufo
<glyph name="exclam" format="1">
  <advance width="158"/>
  <unicode hex="0021"/>
  <outline>
    <contour>
      <point x="151" y="709" type="line"/>
      <point x="7" y="709" type="line"/>
      <point x="27" y="239" type="line"/>
      <point x="132" y="239" type="line"/>
    </contour>
    <contour>
      <point x="16" y="137" type="line"/>
      <point x="16" y="0" type="line"/>
      <point x="143" y="0" type="line"/>
      <point x="143" y="137" type="line"/>
    </contour>
  </outline>
</glyph>
<glyph name="dollar" format="1">
  <advance width="344"/>
  <unicode hex="0024"/>
  <outline>
    <contour>
      <point x="196" y="593" type="line"/>
      <point x="213" y="586"/>
      <point x="216" y="554"/>
      <point x="215" y="514" type="curve"/>
      <point x="321" y="514" type="line"/>
      <point x="323" y="588"/>
      <point x="305" y="661"/>
      <point x="196" y="674" type="curve"/>
      <point x="196" y="751" type="line"/>
      <point x="147" y="751" type="line"/>
      <point x="147" y="675" type="line"/>
      <point x="55" y="666"/>
      <point x="8" y="605"/>
      <point x="8" y="512" type="curve" smooth="yes"/>
      <point x="8" y="403"/>
      <point x="72" y="352"/>
      <point x="147" y="299" type="curve"/>
      <point x="147" y="95" type="line"/>
      <point x="121" y="103"/>
      <point x="118" y="136"/>
      <point x="119" y="186" type="curve"/>
      <point x="7" y="186" type="line"/>
      <point x="5" y="87"/>
      <point x="38" y="24"/>
      <point x="147" y="14" type="curve"/>
      <point x="147" y="-69" type="line"/>
      <point x="196" y="-69" type="line"/>
      <point x="196" y="14" type="line"/>
      <point x="275" y="24"/>
      <point x="341" y="82"/>
      <point x="341" y="194" type="curve" smooth="yes"/>
      <point x="341" y="299"/>
      <point x="267" y="348"/>
      <point x="196" y="403" type="curve"/>
    </contour>
    <contour>
      <point x="147" y="438" type="line"/>
      <point x="129" y="465"/>
      <point x="126" y="492"/>
      <point x="126" y="527" type="curve" smooth="yes"/>
      <point x="126" y="557"/>
      <point x="133" y="585"/>
      <point x="147" y="593" type="curve"/>
    </contour>
    <contour>
      <point x="196" y="266" type="line"/>
      <point x="214" y="238"/>
      <point x="222" y="215"/>
      <point x="222" y="176" type="curve" smooth="yes"/>
      <point x="222" y="137"/>
      <point x="216" y="102"/>
      <point x="196" y="95" type="curve"/>
    </contour>
  </outline>
</glyph>
<glyph name="parenright" format="1">
  <advance width="198"/>
  <unicode hex="0029"/>
  <outline>
    <contour>
      <point x="19" y="-184" type="line"/>
      <point x="51" y="-146"/>
      <point x="93" y="-97"/>
      <point x="125" y="-28" type="curve" smooth="yes"/>
      <point x="158" y="50"/>
      <point x="183" y="152"/>
      <point x="181" y="291" type="curve" smooth="yes"/>
      <point x="181" y="431"/>
      <point x="158" y="532"/>
      <point x="124" y="611" type="curve" smooth="yes"/>
      <point x="92" y="679"/>
      <point x="51" y="728"/>
      <point x="19" y="766" type="curve"/>
      <point x="-29" y="697" type="line"/>
      <point x="-3" y="654"/>
      <point x="15" y="613"/>
      <point x="26" y="557" type="curve" smooth="yes"/>
      <point x="39" y="492"/>
      <point x="45" y="410"/>
      <point x="45" y="291" type="curve" smooth="yes"/>
      <point x="45" y="193"/>
      <point x="44" y="109"/>
      <point x="27" y="26" type="curve" smooth="yes"/>
      <point x="16" y="-27"/>
      <point x="-1" y="-69"/>
      <point x="-28" y="-115" type="curve"/>
    </contour>
  </outline>
</glyph>
<glyph name="comma" format="1">
  <advance width="147"/>
  <unicode hex="002C"/>
  <outline>
    <contour>
      <point x="0" y="-133" type="line"/>
      <point x="83" y="-133" type="line"/>
      <point x="148" y="136" type="line"/>
      <point x="12" y="136" type="line"/>
    </contour>
  </outline>
</glyph>
<glyph name="hyphen" format="1">
  <advance width="183"/>
  <unicode hex="002D"/>
  <outline>
    <contour>
      <point x="7" y="310" type="line"/>
      <point x="7" y="188" type="line"/>
      <point x="176" y="188" type="line"/>
      <point x="176" y="310" type="line"/>
    </contour>
  </outline>
</glyph>
<glyph name="slash" format="1">
  <advance width="237"/>
  <unicode hex="002F"/>
  <outline>
    <contour>
      <point x="246" y="739" type="line"/>
      <point x="146" y="739" type="line"/>
      <point x="-8" y="-12" type="line"/>
      <point x="93" y="-12" type="line"/>
    </contour>
  </outline>
</glyph>
<glyph name="three" format="1">
  <advance width="325"/>
  <unicode hex="0033"/>
  <outline>
    <contour>
      <point x="95" y="314" type="line"/>
      <point x="158" y="309"/>
      <point x="187" y="271"/>
      <point x="187" y="179" type="curve" smooth="yes"/>
      <point x="187" y="128"/>
      <point x="179" y="82"/>
      <point x="158" y="82" type="curve" smooth="yes"/>
      <point x="136" y="82"/>
      <point x="132" y="124"/>
      <point x="132" y="173" type="curve"/>
      <point x="9" y="174" type="line"/>
      <point x="8" y="83"/>
      <point x="31" y="-12"/>
      <point x="161" y="-12" type="curve" smooth="yes"/>
      <point x="255" y="-12"/>
      <point x="317" y="56"/>
      <point x="317" y="189" type="curve" smooth="yes"/>
      <point x="317" y="302"/>
      <point x="259" y="359"/>
      <point x="199" y="373" type="curve"/>
      <point x="199" y="375" type="line"/>
      <point x="267" y="394"/>
      <point x="300" y="453"/>
      <point x="300" y="543" type="curve" smooth="yes"/>
      <point x="300" y="648"/>
      <point x="242" y="705"/>
      <point x="155" y="705" type="curve" smooth="yes"/>
      <point x="33" y="705"/>
      <point x="10" y="612"/>
      <point x="11" y="529" type="curve"/>
      <point x="126" y="531" type="line"/>
      <point x="125" y="579"/>
      <point x="132" y="611"/>
      <point x="149" y="611" type="curve" smooth="yes"/>
      <point x="166" y="611"/>
      <point x="175" y="579"/>
      <point x="175" y="533" type="curve" smooth="yes"/>
      <point x="175" y="464"/>
      <point x="153" y="422"/>
      <point x="95" y="414" type="curve"/>
    </contour>
  </outline>
</glyph>
<glyph name="four" format="1">
  <advance width="337"/>
  <unicode hex="0034"/>
  <outline>
    <contour>
      <point x="1" y="257" type="line"/>
      <point x="1" y="170" type="line"/>
      <point x="178" y="170" type="line"/>
      <point x="178" y="0" type="line"/>
      <point x="304" y="0" type="line"/>
      <point x="304" y="170" type="line"/>
      <point x="328" y="170" type="line"/>
      <point x="328" y="259" type="line"/>
      <point x="304" y="259" type="line"/>
      <point x="304" y="698" type="line"/>
      <point x="157" y="698" type="line"/>
    </contour>
    <contour>
      <point x="94" y="259" type="line"/>
      <point x="134" y="393" type="line"/>
      <point x="150" y="444"/>
      <point x="163" y="489"/>
      <point x="176" y="539" type="curve"/>
      <point x="179" y="539" type="line"/>
      <point x="178" y="495"/>
      <point x="178" y="443"/>
      <point x="178" y="395" type="curve" smooth="yes"/>
      <point x="178" y="259" type="line"/>
    </contour>
  </outline>
</glyph>
<glyph name="seven" format="1">
  <advance width="261"/>
  <unicode hex="0037"/>
  <outline>
    <contour>
      <point x="268" y="692" type="line"/>
      <point x="-5" y="692" type="line"/>
      <point x="-5" y="582" type="line"/>
      <point x="146" y="582" type="line"/>
      <point x="146" y="577" type="line"/>
      <point x="35" y="0" type="line"/>
      <point x="166" y="0" type="line"/>
      <point x="268" y="657" type="line"/>
    </contour>
  </outline>
</glyph>
<glyph name="eight" format="1">
  <advance width="329"/>
  <unicode hex="0038"/>
  <outline>
    <contour>
      <point x="85" y="370" type="line"/>
      <point x="49" y="348"/>
      <point x="7" y="303"/>
      <point x="7" y="191" type="curve" smooth="yes"/>
      <point x="7" y="39"/>
      <point x="104" y="-12"/>
      <point x="164" y="-12" type="curve" smooth="yes"/>
      <point x="226" y="-12"/>
      <point x="322" y="41"/>
      <point x="322" y="191" type="curve" smooth="yes"/>
      <point x="322" y="306"/>
      <point x="277" y="348"/>
      <point x="245" y="370" type="curve"/>
      <point x="245" y="372" type="line"/>
      <point x="265" y="387"/>
      <point x="316" y="417"/>
      <point x="316" y="528" type="curve" smooth="yes"/>
      <point x="316" y="638"/>
      <point x="254" y="705"/>
      <point x="164" y="705" type="curve" smooth="yes"/>
      <point x="63" y="705"/>
      <point x="13" y="628"/>
      <point x="13" y="528" type="curve" smooth="yes"/>
      <point x="13" y="436"/>
      <point x="45" y="400"/>
      <point x="85" y="372" type="curve"/>
    </contour>
    <contour>
      <point x="140" y="511" type="line"/>
      <point x="140" y="580"/>
      <point x="153" y="611"/>
      <point x="164" y="611" type="curve" smooth="yes"/>
      <point x="178" y="611"/>
      <point x="189" y="577"/>
      <point x="189" y="512" type="curve" smooth="yes"/>
      <point x="189" y="435"/>
      <point x="177" y="408"/>
      <point x="164" y="408" type="curve" smooth="yes"/>
      <point x="151" y="408"/>
      <point x="140" y="440"/>
      <point x="140" y="510" type="curve"/>
    </contour>
    <contour>
      <point x="137" y="197" type="line"/>
      <point x="137" y="278"/>
      <point x="151" y="314"/>
      <point x="164" y="314" type="curve" smooth="yes"/>
      <point x="174" y="314"/>
      <point x="192" y="281"/>
      <point x="192" y="197" type="curve" smooth="yes"/>
      <point x="192" y="123"/>
      <point x="182" y="82"/>
      <point x="164" y="82" type="curve" smooth="yes"/>
      <point x="147" y="82"/>
      <point x="137" y="122"/>
      <point x="137" y="196" type="curve"/>
    </contour>
  </outline>
</glyph>
<glyph name="semicolon" format="1">
  <advance width="147"/>
  <unicode hex="003B"/>
  <outline>
    <contour>
      <point x="11" y="493" type="line"/>
      <point x="11" y="356" type="line"/>
      <point x="138" y="356" type="line"/>
      <point x="138" y="493" type="line"/>
    </contour>
    <contour>
      <point x="0" y="-133" type="line"/>
      <point x="83" y="-133" type="line"/>
      <point x="148" y="137" type="line"/>
      <point x="12" y="137" type="line"/>
    </contour>
  </outline>
</glyph>
<glyph name="B" format="1">
  <advance width="338"/>
  <unicode hex="0042"/>
  <outline>
    <contour>
      <point x="214" y="378" type="line"/>
      <point x="262" y="388"/>
      <point x="317" y="427"/>
      <point x="317" y="536" type="curve" smooth="yes"/>
      <point x="317" y="677"/>
      <point x="227" y="709"/>
      <point x="130" y="709" type="curve" smooth="yes"/>
      <point x="18" y="709" type="line"/>
      <point x="18" y="0" type="line"/>
      <point x="144" y="0" type="line"/>
      <point x="260" y="0"/>
      <point x="331" y="59"/>
      <point x="331" y="194" type="curve" smooth="yes"/>
      <point x="331" y="308"/>
      <point x="288" y="355"/>
      <point x="214" y="374" type="curve"/>
    </contour>
    <contour>
      <point x="195" y="203" type="curve" smooth="yes"/>
      <point x="195" y="127"/>
      <point x="183" y="95"/>
      <point x="150" y="95" type="curve" smooth="yes"/>
      <point x="151" y="95" type="line"/>
      <point x="151" y="324" type="line"/>
      <point x="151" y="324" type="line"/>
      <point x="186" y="324"/>
      <point x="195" y="275"/>
    </contour>
    <contour>
      <point x="190" y="520" type="curve" smooth="yes"/>
      <point x="190" y="449"/>
      <point x="174" y="420"/>
      <point x="152" y="420" type="curve" smooth="yes"/>
      <point x="151" y="420" type="line"/>
      <point x="151" y="614" type="line"/>
      <point x="150" y="614" type="line"/>
      <point x="171" y="614"/>
      <point x="190" y="588"/>
    </contour>
  </outline>
</glyph>
<glyph name="C" format="1">
  <advance width="328"/>
  <unicode hex="0043"/>
  <outline>
    <contour>
      <point x="194" y="233" type="line"/>
      <point x="195" y="132"/>
      <point x="193" y="81"/>
      <point x="175" y="81" type="curve" smooth="yes"/>
      <point x="160" y="81"/>
      <point x="151" y="127"/>
      <point x="151" y="353" type="curve" smooth="yes"/>
      <point x="151" y="575"/>
      <point x="162" y="628"/>
      <point x="175" y="628" type="curve" smooth="yes"/>
      <point x="190" y="628"/>
      <point x="192" y="592"/>
      <point x="191" y="486" type="curve"/>
      <point x="314" y="485" type="line"/>
      <point x="316" y="678"/>
      <point x="239" y="723"/>
      <point x="176" y="723" type="curve" smooth="yes"/>
      <point x="121" y="723"/>
      <point x="87" y="695"/>
      <point x="62" y="647" type="curve" smooth="yes"/>
      <point x="26" y="585"/>
      <point x="15" y="487"/>
      <point x="15" y="362" type="curve" smooth="yes"/>
      <point x="15" y="204"/>
      <point x="33" y="112"/>
      <point x="63" y="58" type="curve" smooth="yes"/>
      <point x="91" y="6"/>
      <point x="131" y="-14"/>
      <point x="177" y="-14" type="curve" smooth="yes"/>
      <point x="245" y="-14"/>
      <point x="322" y="54"/>
      <point x="319" y="234" type="curve"/>
    </contour>
  </outline>
</glyph>
<glyph name="D" format="1">
  <advance width="337"/>
  <unicode hex="0044"/>
  <outline>
    <contour>
      <point x="330" y="359" type="curve" smooth="yes"/>
      <point x="330" y="641"/>
      <point x="252" y="709"/>
      <point x="140" y="709" type="curve" smooth="yes"/>
      <point x="18" y="709" type="line"/>
      <point x="18" y="0" type="line"/>
      <point x="140" y="0" type="line"/>
      <point x="277" y="0"/>
      <point x="330" y="102"/>
    </contour>
    <contour>
      <point x="194" y="354" type="curve" smooth="yes"/>
      <point x="194" y="137"/>
      <point x="179" y="95"/>
      <point x="148" y="95" type="curve" smooth="yes"/>
      <point x="151" y="95" type="line"/>
      <point x="151" y="614" type="line"/>
      <point x="149" y="614" type="line"/>
      <point x="181" y="614"/>
      <point x="194" y="528"/>
    </contour>
  </outline>
</glyph>
<glyph name="E" format="1">
  <advance width="243"/>
  <unicode hex="0045"/>
  <outline>
    <contour>
      <point x="151" y="387" type="line"/>
      <point x="151" y="614" type="line"/>
      <point x="233" y="614" type="line"/>
      <point x="233" y="709" type="line"/>
      <point x="18" y="709" type="line"/>
      <point x="18" y="0" type="line"/>
      <point x="235" y="0" type="line"/>
      <point x="235" y="95" type="line"/>
      <point x="151" y="95" type="line"/>
      <point x="151" y="292" type="line"/>
      <point x="219" y="292" type="line"/>
      <point x="219" y="387" type="line"/>
    </contour>
  </outline>
</glyph>
<glyph name="F" format="1">
  <advance width="247"/>
  <unicode hex="0046"/>
  <outline>
    <contour>
      <point x="151" y="0" type="line"/>
      <point x="151" y="314" type="line"/>
      <point x="217" y="314" type="line"/>
      <point x="217" y="410" type="line"/>
      <point x="151" y="410" type="line"/>
      <point x="151" y="614" type="line"/>
      <point x="241" y="614" type="line"/>
      <point x="241" y="709" type="line"/>
      <point x="18" y="709" type="line"/>
      <point x="18" y="0" type="line"/>
    </contour>
  </outline>
</glyph>
<glyph name="G" format="1">
  <advance width="331"/>
  <unicode hex="0047"/>
  <outline>
    <contour>
      <point x="315" y="350" type="line"/>
      <point x="176" y="350" type="line"/>
      <point x="176" y="255" type="line"/>
      <point x="194" y="255" type="line"/>
      <point x="194" y="95" type="line"/>
      <point x="192" y="89"/>
      <point x="187" y="81"/>
      <point x="181" y="81" type="curve" smooth="yes"/>
      <point x="156" y="81"/>
      <point x="151" y="150"/>
      <point x="151" y="355" type="curve" smooth="yes"/>
      <point x="151" y="557"/>
      <point x="157" y="628"/>
      <point x="174" y="628" type="curve" smooth="yes"/>
      <point x="190" y="628"/>
      <point x="193" y="596"/>
      <point x="192" y="487" type="curve"/>
      <point x="316" y="485" type="line"/>
      <point x="319" y="630"/>
      <point x="281" y="723"/>
      <point x="175" y="723" type="curve" smooth="yes"/>
      <point x="59" y="723"/>
      <point x="15" y="621"/>
      <point x="15" y="362" type="curve" smooth="yes"/>
      <point x="15" y="118"/>
      <point x="40" y="-14"/>
      <point x="180" y="-14" type="curve" smooth="yes"/>
      <point x="245" y="-14"/>
      <point x="295" y="33"/>
      <point x="315" y="79" type="curve"/>
    </contour>
  </outline>
</glyph>
<glyph name="H" format="1">
  <advance width="349"/>
  <unicode hex="0048"/>
  <outline>
    <contour>
      <point x="332" y="709" type="line"/>
      <point x="198" y="709" type="line"/>
      <point x="198" y="414" type="line"/>
      <point x="151" y="414" type="line"/>
      <point x="151" y="709" type="line"/>
      <point x="18" y="709" type="line"/>
      <point x="18" y="0" type="line"/>
      <point x="151" y="0" type="line"/>
      <point x="151" y="319" type="line"/>
      <point x="198" y="319" type="line"/>
      <point x="198" y="0" type="line"/>
      <point x="332" y="0" type="line"/>
    </contour>
  </outline>
</glyph>
<glyph name="J" format="1">
  <advance width="206"/>
  <unicode hex="004A"/>
  <outline>
    <contour>
      <point x="10" y="-6" type="line"/>
      <point x="25" y="-10"/>
      <point x="41" y="-14"/>
      <point x="70" y="-14" type="curve" smooth="yes"/>
      <point x="149" y="-14"/>
      <point x="189" y="36"/>
      <point x="189" y="166" type="curve" smooth="yes"/>
      <point x="189" y="709" type="line"/>
      <point x="55" y="709" type="line"/>
      <point x="55" y="153" type="line"/>
      <point x="55" y="94"/>
      <point x="48" y="81"/>
      <point x="36" y="81" type="curve" smooth="yes"/>
      <point x="30" y="81"/>
      <point x="24" y="84"/>
      <point x="19" y="89" type="curve"/>
    </contour>
  </outline>
</glyph>
<glyph name="L" format="1">
  <advance width="225"/>
  <unicode hex="004C"/>
  <outline>
    <contour>
      <point x="220" y="95" type="line"/>
      <point x="151" y="95" type="line"/>
      <point x="151" y="709" type="line"/>
      <point x="18" y="709" type="line"/>
      <point x="18" y="0" type="line"/>
      <point x="220" y="0" type="line"/>
    </contour>
  </outline>
</glyph>
<glyph name="N" format="1">
  <advance width="374"/>
  <unicode hex="004E"/>
  <outline>
    <contour>
      <point x="247" y="208" type="line"/>
      <point x="241" y="290"/>
      <point x="215" y="464"/>
      <point x="174" y="709" type="curve"/>
      <point x="18" y="709" type="line"/>
      <point x="18" y="0" type="line"/>
      <point x="133" y="0" type="line"/>
      <point x="133" y="247"/>
      <point x="128" y="419"/>
      <point x="123" y="501" type="curve"/>
      <point x="128" y="501" type="line"/>
      <point x="133" y="420"/>
      <point x="159" y="250"/>
      <point x="201" y="0" type="curve"/>
      <point x="356" y="0" type="line"/>
      <point x="356" y="709" type="line"/>
      <point x="242" y="709" type="line"/>
      <point x="242" y="465"/>
      <point x="246" y="291"/>
      <point x="252" y="208" type="curve"/>
    </contour>
  </outline>
</glyph>
<glyph name="P" format="1">
  <advance width="339"/>
  <unicode hex="0050"/>
  <outline>
    <contour>
      <point x="151" y="0" type="line"/>
      <point x="151" y="272" type="line"/>
      <point x="152" y="272" type="line"/>
      <point x="258" y="272"/>
      <point x="333" y="336"/>
      <point x="333" y="494" type="curve" smooth="yes"/>
      <point x="333" y="638"/>
      <point x="269" y="709"/>
      <point x="147" y="709" type="curve" smooth="yes"/>
      <point x="18" y="709" type="line"/>
      <point x="18" y="0" type="line"/>
    </contour>
    <contour>
      <point x="151" y="368" type="curve" smooth="yes"/>
      <point x="151" y="614" type="line"/>
      <point x="155" y="614" type="line"/>
      <point x="178" y="614"/>
      <point x="197" y="588"/>
      <point x="197" y="494" type="curve" smooth="yes"/>
      <point x="197" y="394"/>
      <point x="179" y="369"/>
      <point x="154" y="368" type="curve" smooth="yes"/>
      <point x="153" y="368"/>
      <point x="152" y="368"/>
    </contour>
  </outline>
</glyph>
<glyph name="T" format="1">
  <advance width="282"/>
  <unicode hex="0054"/>
  <outline>
    <contour>
      <point x="278" y="709" type="line"/>
      <point x="4" y="709" type="line"/>
      <point x="4" y="614" type="line"/>
      <point x="75" y="614" type="line"/>
      <point x="75" y="0" type="line"/>
      <point x="208" y="0" type="line"/>
      <point x="208" y="614" type="line"/>
      <point x="278" y="614" type="line"/>
    </contour>
  </outline>
</glyph>
<glyph name="bracketleft" format="1">
  <advance width="183"/>
  <unicode hex="005B"/>
  <outline>
    <contour>
      <point x="198" y="-156" type="line"/>
      <point x="198" y="-61" type="line"/>
      <point x="154" y="-61" type="line"/>
      <point x="154" y="644" type="line"/>
      <point x="198" y="644" type="line"/>
      <point x="198" y="739" type="line"/>
      <point x="28" y="739" type="line"/>
      <point x="28" y="-156" type="line"/>
    </contour>
  </outline>
</glyph>
<glyph name="backslash" format="1">
  <advance width="237"/>
  <unicode hex="005C"/>
  <outline>
    <contour>
      <point x="-9" y="739" type="line"/>
      <point x="145" y="-12" type="line"/>
      <point x="246" y="-12" type="line"/>
      <point x="92" y="739" type="line"/>
    </contour>
  </outline>
</glyph>
<glyph name="bracketright" format="1">
  <advance width="182"/>
  <unicode hex="005D"/>
  <outline>
    <contour>
      <point x="-14" y="-156" type="line"/>
      <point x="157" y="-156" type="line"/>
      <point x="157" y="739" type="line"/>
      <point x="-14" y="739" type="line"/>
      <point x="-14" y="644" type="line"/>
      <point x="30" y="644" type="line"/>
      <point x="30" y="-61" type="line"/>
      <point x="-14" y="-61" type="line"/>
    </contour>
  </outline>
</glyph>
<glyph name="underscore" format="1">
  <advance width="248"/>
  <unicode hex="005F"/>
  <outline>
    <contour>
      <point x="248" y="-125" type="line"/>
      <point x="248" y="-75" type="line"/>
      <point x="0" y="-75" type="line"/>
      <point x="0" y="-125" type="line"/>
    </contour>
  </outline>
</glyph>
<glyph name="c" format="1">
  <advance width="323"/>
  <unicode hex="0063"/>
  <outline>
    <contour>
      <point x="309" y="367" type="line"/>
      <point x="311" y="481"/>
      <point x="259" y="544"/>
      <point x="169" y="544" type="curve" smooth="yes"/>
      <point x="67" y="544"/>
      <point x="15" y="452"/>
      <point x="15" y="267" type="curve" smooth="yes"/>
      <point x="15" y="95"/>
      <point x="44" y="-12"/>
      <point x="168" y="-12" type="curve" smooth="yes"/>
      <point x="264" y="-12"/>
      <point x="314" y="57"/>
      <point x="311" y="178" type="curve"/>
      <point x="185" y="176" type="line"/>
      <point x="187" y="113"/>
      <point x="183" y="74"/>
      <point x="168" y="74" type="curve" smooth="yes"/>
      <point x="149" y="74"/>
      <point x="145" y="115"/>
      <point x="145" y="267" type="curve" smooth="yes"/>
      <point x="145" y="406"/>
      <point x="151" y="458"/>
      <point x="169" y="458" type="curve" smooth="yes"/>
      <point x="185" y="458"/>
      <point x="187" y="423"/>
      <point x="185" y="369" type="curve"/>
    </contour>
  </outline>
</glyph>
<glyph name="e" format="1">
  <advance width="337"/>
  <unicode hex="0065"/>
  <outline>
    <contour>
      <point x="322" y="240" type="line"/>
      <point x="322" y="353"/>
      <point x="310" y="433"/>
      <point x="271" y="490" type="curve" smooth="yes"/>
      <point x="245" y="528"/>
      <point x="207" y="544"/>
      <point x="168" y="544" type="curve" smooth="yes"/>
      <point x="124" y="544"/>
      <point x="90" y="525"/>
      <point x="65" y="490" type="curve" smooth="yes"/>
      <point x="30" y="443"/>
      <point x="15" y="365"/>
      <point x="15" y="270" type="curve" smooth="yes"/>
      <point x="15" y="154"/>
      <point x="35" y="86"/>
      <point x="62" y="45" type="curve" smooth="yes"/>
      <point x="94" y="-1"/>
      <point x="137" y="-12"/>
      <point x="170" y="-12" type="curve" smooth="yes"/>
      <point x="218" y="-12"/>
      <point x="253" y="6"/>
      <point x="278" y="35" type="curve" smooth="yes"/>
      <point x="305" y="68"/>
      <point x="318" y="108"/>
      <point x="322" y="147" type="curve"/>
      <point x="197" y="146" type="line"/>
      <point x="197" y="96"/>
      <point x="191" y="68"/>
      <point x="174" y="68" type="curve" smooth="yes"/>
      <point x="150" y="68"/>
      <point x="144" y="107"/>
      <point x="145" y="240" type="curve"/>
    </contour>
    <contour>
      <point x="145" y="309" type="line"/>
      <point x="144" y="443"/>
      <point x="159" y="464"/>
      <point x="169" y="464" type="curve" smooth="yes"/>
      <point x="184" y="464"/>
      <point x="193" y="421"/>
      <point x="192" y="309" type="curve"/>
    </contour>
  </outline>
</glyph>
<glyph name="h" format="1">
  <advance width="330"/>
  <unicode hex="0068"/>
  <outline>
    <contour>
      <point x="315" y="0" type="line"/>
      <point x="315" y="394" type="line"/>
      <point x="315" y="451"/>
      <point x="306" y="489"/>
      <point x="292" y="511" type="curve" smooth="yes"/>
      <point x="278" y="533"/>
      <point x="255" y="544"/>
      <point x="228" y="544" type="curve" smooth="yes"/>
      <point x="210" y="544"/>
      <point x="193" y="537"/>
      <point x="179" y="527" type="curve" smooth="yes"/>
      <point x="167" y="518"/>
      <point x="157" y="506"/>
      <point x="149" y="495" type="curve"/>
      <point x="145" y="495" type="line"/>
      <point x="145" y="727" type="line"/>
      <point x="18" y="727" type="line"/>
      <point x="18" y="0" type="line"/>
      <point x="145" y="0" type="line"/>
      <point x="145" y="393" type="line"/>
      <point x="149" y="409"/>
      <point x="152" y="419"/>
      <point x="156" y="426" type="curve" smooth="yes"/>
      <point x="160" y="433"/>
      <point x="164" y="436"/>
      <point x="168" y="436" type="curve" smooth="yes"/>
      <point x="175" y="436"/>
      <point x="179" y="432"/>
      <point x="181" y="423" type="curve" smooth="yes"/>
      <point x="186" y="409"/>
      <point x="188" y="377"/>
      <point x="188" y="332" type="curve" smooth="yes"/>
      <point x="188" y="0" type="line"/>
    </contour>
  </outline>
</glyph>
<glyph name="j" format="1">
  <advance width="162"/>
  <unicode hex="006A"/>
  <outline>
    <contour>
      <point x="144" y="639" type="line"/>
      <point x="144" y="734" type="line"/>
      <point x="17" y="734" type="line"/>
      <point x="17" y="639" type="line"/>
    </contour>
    <contour>
      <point x="-55" y="-216" type="line"/>
      <point x="-43" y="-221"/>
      <point x="-31" y="-224"/>
      <point x="-20" y="-226" type="curve" smooth="yes"/>
      <point x="-7" y="-228"/>
      <point x="6" y="-230"/>
      <point x="19" y="-230" type="curve" smooth="yes"/>
      <point x="57" y="-230"/>
      <point x="88" y="-217"/>
      <point x="110" y="-184" type="curve" smooth="yes"/>
      <point x="134" y="-146"/>
      <point x="144" y="-88"/>
      <point x="144" y="5" type="curve" smooth="yes"/>
      <point x="144" y="532" type="line"/>
      <point x="17" y="532" type="line"/>
      <point x="17" y="-35" type="line"/>
      <point x="17" y="-78"/>
      <point x="15" y="-105"/>
      <point x="8" y="-122" type="curve" smooth="yes"/>
      <point x="5" y="-129"/>
      <point x="-3" y="-137"/>
      <point x="-11" y="-137" type="curve" smooth="yes"/>
      <point x="-17" y="-137"/>
      <point x="-22" y="-135"/>
      <point x="-26" y="-134" type="curve" smooth="yes"/>
      <point x="-30" y="-132"/>
      <point x="-36" y="-129"/>
      <point x="-38" y="-125" type="curve"/>
    </contour>
  </outline>
</glyph>
<glyph name="k" format="1">
  <advance width="314"/>
  <unicode hex="006B"/>
  <outline>
    <contour>
      <point x="221" y="322" type="line"/>
      <point x="318" y="532" type="line"/>
      <point x="196" y="532" type="line"/>
      <point x="170" y="443" type="line"/>
      <point x="162" y="414"/>
      <point x="153" y="383"/>
      <point x="147" y="352" type="curve"/>
      <point x="142" y="352" type="line"/>
      <point x="144" y="388"/>
      <point x="145" y="411"/>
      <point x="145" y="444" type="curve" smooth="yes"/>
      <point x="145" y="727" type="line"/>
      <point x="18" y="727" type="line"/>
      <point x="18" y="0" type="line"/>
      <point x="145" y="0" type="line"/>
      <point x="145" y="190" type="line"/>
      <point x="152" y="213" type="line"/>
      <point x="188" y="0" type="line"/>
      <point x="325" y="0" type="line"/>
    </contour>
  </outline>
</glyph>
<glyph name="o" format="1">
  <advance width="334"/>
  <unicode hex="006F"/>
  <outline>
    <contour>
      <point x="320" y="266" type="line"/>
      <point x="320" y="493"/>
      <point x="237" y="544"/>
      <point x="167" y="544" type="curve" smooth="yes"/>
      <point x="98" y="544"/>
      <point x="15" y="493"/>
      <point x="15" y="266" type="curve" smooth="yes"/>
      <point x="15" y="86"/>
      <point x="57" y="-12"/>
      <point x="167" y="-12" type="curve" smooth="yes"/>
      <point x="275" y="-12"/>
      <point x="320" y="86"/>
      <point x="320" y="265" type="curve"/>
    </contour>
    <contour>
      <point x="167" y="74" type="line"/>
      <point x="152" y="74"/>
      <point x="145" y="116"/>
      <point x="145" y="265" type="curve" smooth="yes"/>
      <point x="145" y="410"/>
      <point x="151" y="458"/>
      <point x="167" y="458" type="curve" smooth="yes"/>
      <point x="183" y="458"/>
      <point x="190" y="412"/>
      <point x="190" y="265" type="curve" smooth="yes"/>
      <point x="190" y="128"/>
      <point x="185" y="74"/>
      <point x="168" y="74" type="curve"/>
    </contour>
  </outline>
</glyph>
<glyph name="s" format="1">
  <advance width="307"/>
  <unicode hex="0073"/>
  <outline>
    <contour>
      <point x="288" y="414" type="line"/>
      <point x="289" y="450"/>
      <point x="278" y="479"/>
      <point x="258" y="501" type="curve" smooth="yes"/>
      <point x="234" y="528"/>
      <point x="197" y="544"/>
      <point x="148" y="544" type="curve" smooth="yes"/>
      <point x="110" y="544"/>
      <point x="78" y="531"/>
      <point x="54" y="507" type="curve" smooth="yes"/>
      <point x="29" y="482"/>
      <point x="14" y="444"/>
      <point x="14" y="400" type="curve" smooth="yes"/>
      <point x="14" y="368"/>
      <point x="25" y="333"/>
      <point x="39" y="308" type="curve" smooth="yes"/>
      <point x="55" y="281"/>
      <point x="78" y="259"/>
      <point x="104" y="239" type="curve" smooth="yes"/>
      <point x="126" y="220"/>
      <point x="144" y="205"/>
      <point x="152" y="189" type="curve" smooth="yes"/>
      <point x="161" y="173"/>
      <point x="167" y="154"/>
      <point x="167" y="138" type="curve" smooth="yes"/>
      <point x="167" y="112"/>
      <point x="164" y="95"/>
      <point x="161" y="85" type="curve" smooth="yes"/>
      <point x="157" y="73"/>
      <point x="152" y="68"/>
      <point x="145" y="68" type="curve" smooth="yes"/>
      <point x="131" y="68"/>
      <point x="121" y="85"/>
      <point x="123" y="120" type="curve"/>
      <point x="11" y="121" type="line"/>
      <point x="9" y="80"/>
      <point x="25" y="42"/>
      <point x="53" y="20" type="curve" smooth="yes"/>
      <point x="76" y="-2"/>
      <point x="111" y="-12"/>
      <point x="152" y="-12" type="curve" smooth="yes"/>
      <point x="198" y="-12"/>
      <point x="237" y="6"/>
      <point x="262" y="36" type="curve" smooth="yes"/>
      <point x="285" y="65"/>
      <point x="297" y="104"/>
      <point x="297" y="149" type="curve" smooth="yes"/>
      <point x="297" y="194"/>
      <point x="286" y="224"/>
      <point x="269" y="246" type="curve" smooth="yes"/>
      <point x="253" y="272"/>
      <point x="225" y="295"/>
      <point x="202" y="317" type="curve" smooth="yes"/>
      <point x="177" y="340"/>
      <point x="161" y="351"/>
      <point x="153" y="365" type="curve" smooth="yes"/>
      <point x="142" y="378"/>
      <point x="138" y="396"/>
      <point x="138" y="412" type="curve" smooth="yes"/>
      <point x="138" y="430"/>
      <point x="140" y="444"/>
      <point x="144" y="453" type="curve" smooth="yes"/>
      <point x="147" y="459"/>
      <point x="152" y="464"/>
      <point x="158" y="464" type="curve" smooth="yes"/>
      <point x="174" y="464"/>
      <point x="179" y="439"/>
      <point x="179" y="414" type="curve"/>
    </contour>
  </outline>
</glyph>
<glyph name="v" format="1">
  <advance width="271"/>
  <unicode hex="0076"/>
  <outline>
    <contour>
      <point x="133" y="93" type="line"/>
      <point x="132" y="177"/>
      <point x="130" y="255"/>
      <point x="127" y="327" type="curve" smooth="yes"/>
      <point x="118" y="532" type="line"/>
      <point x="-10" y="532" type="line"/>
      <point x="67" y="0" type="line"/>
      <point x="203" y="0" type="line"/>
      <point x="280" y="532" type="line"/>
      <point x="152" y="532" type="line"/>
      <point x="144" y="327" type="line"/>
      <point x="139" y="226"/>
      <point x="138" y="177"/>
      <point x="138" y="93" type="curve"/>
    </contour>
  </outline>
</glyph>
<glyph name="w" format="1">
  <advance width="379"/>
  <unicode hex="0077"/>
  <outline>
    <contour>
      <point x="193" y="420" type="line"/>
      <point x="195" y="331"/>
      <point x="195" y="281"/>
      <point x="197" y="207" type="curve" smooth="yes"/>
      <point x="203" y="0" type="line"/>
      <point x="346" y="0" type="line"/>
      <point x="385" y="532" type="line"/>
      <point x="282" y="532" type="line"/>
      <point x="277" y="333" type="line"/>
      <point x="276" y="267"/>
      <point x="274" y="200"/>
      <point x="274" y="110" type="curve"/>
      <point x="269" y="110" type="line"/>
      <point x="268" y="194"/>
      <point x="266" y="263"/>
      <point x="264" y="328" type="curve" smooth="yes"/>
      <point x="258" y="532" type="line"/>
      <point x="122" y="532" type="line"/>
      <point x="115" y="328" type="line"/>
      <point x="113" y="263"/>
      <point x="111" y="197"/>
      <point x="109" y="110" type="curve"/>
      <point x="105" y="110" type="line"/>
      <point x="105" y="199"/>
      <point x="103" y="272"/>
      <point x="103" y="328" type="curve" smooth="yes"/>
      <point x="98" y="532" type="line"/>
      <point x="-6" y="532" type="line"/>
      <point x="33" y="0" type="line"/>
      <point x="176" y="0" type="line"/>
      <point x="183" y="202" type="line"/>
      <point x="185" y="274"/>
      <point x="187" y="327"/>
      <point x="188" y="420" type="curve"/>
    </contour>
  </outline>
</glyph>
<glyph name="braceleft" format="1">
  <advance width="216"/>
  <unicode hex="007B"/>
  <outline>
    <contour>
      <point x="3" y="245" type="line"/>
      <point x="13" y="242"/>
      <point x="24" y="236"/>
      <point x="33" y="224" type="curve" smooth="yes"/>
      <point x="42" y="211"/>
      <point x="48" y="192"/>
      <point x="48" y="160" type="curve" smooth="yes"/>
      <point x="48" y="24" type="line"/>
      <point x="48" y="-45"/>
      <point x="64" y="-85"/>
      <point x="91" y="-112" type="curve" smooth="yes"/>
      <point x="134" y="-151"/>
      <point x="205" y="-155"/>
      <point x="235" y="-155" type="curve"/>
      <point x="235" y="-61" type="line"/>
      <point x="216" y="-61"/>
      <point x="200" y="-54"/>
      <point x="190" y="-37" type="curve" smooth="yes"/>
      <point x="180" y="-20"/>
      <point x="176" y="10"/>
      <point x="176" y="55" type="curve" smooth="yes"/>
      <point x="176" y="154" type="line"/>
      <point x="176" y="206"/>
      <point x="163" y="240"/>
      <point x="141" y="261" type="curve" smooth="yes"/>
      <point x="121" y="279"/>
      <point x="95" y="288"/>
      <point x="67" y="290" type="curve"/>
      <point x="67" y="294" type="line"/>
      <point x="95" y="297"/>
      <point x="121" y="305"/>
      <point x="141" y="323" type="curve" smooth="yes"/>
      <point x="163" y="345"/>
      <point x="176" y="379"/>
      <point x="176" y="430" type="curve" smooth="yes"/>
      <point x="176" y="529" type="line"/>
      <point x="176" y="574"/>
      <point x="180" y="604"/>
      <point x="190" y="621" type="curve" smooth="yes"/>
      <point x="200" y="638"/>
      <point x="216" y="644"/>
      <point x="235" y="644" type="curve"/>
      <point x="235" y="739" type="line"/>
      <point x="205" y="739"/>
      <point x="134" y="734"/>
      <point x="91" y="696" type="curve" smooth="yes"/>
      <point x="64" y="669"/>
      <point x="48" y="629"/>
      <point x="48" y="560" type="curve" smooth="yes"/>
      <point x="48" y="425" type="line"/>
      <point x="48" y="392"/>
      <point x="42" y="373"/>
      <point x="33" y="360" type="curve" smooth="yes"/>
      <point x="24" y="348"/>
      <point x="13" y="343"/>
      <point x="3" y="339" type="curve"/>
    </contour>
  </outline>
</glyph>
<glyph name="bar" format="1">
  <advance width="159"/>
  <unicode hex="007C"/>
  <outline>
    <contour>
      <point x="30" y="-250" type="line"/>
      <point x="129" y="-250" type="line"/>
      <point x="129" y="750" type="line"/>
      <point x="30" y="750" type="line"/>
    </contour>
  </outline>
</glyph>
<glyph name="paragraph" format="1">
  <advance width="374"/>
  <unicode hex="00B6"/>
  <outline>
    <contour>
      <point x="154" y="-144" type="line"/>
      <point x="238" y="-144" type="line"/>
      <point x="238" y="649" type="line"/>
      <point x="261" y="649" type="line"/>
      <point x="261" y="-144" type="line"/>
      <point x="346" y="-144" type="line"/>
      <point x="346" y="709" type="line"/>
      <point x="172" y="709" type="line"/>
      <point x="117" y="709"/>
      <point x="77" y="690"/>
      <point x="49" y="656" type="curve" smooth="yes"/>
      <point x="16" y="615"/>
      <point x="0" y="563"/>
      <point x="0" y="503" type="curve" smooth="yes"/>
      <point x="0" y="447"/>
      <point x="14" y="396"/>
      <point x="41" y="359" type="curve" smooth="yes"/>
      <point x="70" y="320"/>
      <point x="109" y="298"/>
      <point x="154" y="297" type="curve"/>
    </contour>
  </outline>
</glyph>
<glyph name="endash" format="1">
  <advance width="249"/>
  <unicode hex="2013"/>
  <outline>
    <contour>
      <point x="15" y="310" type="line"/>
      <point x="15" y="188" type="line"/>
      <point x="234" y="188" type="line"/>
      <point x="234" y="310" type="line"/>
    </contour>
  </outline>
</glyph>
